#!OML:ASF E:\Steps\Project 1\Capture day 1\Session 2\Subject.ASF
:FULLY-SPECIFIED
:DEGREES
236
root 10.0226 22.3636 8.77327 -145.873 -176.847 184.735
lowerback -22.8363 1.66862 -7.95451
upperback -4.00498 4.32628 -2.15209
thorax 7.89112 1.91816 3.41206
lowerneck 0.718958 -0.921436 -2.20404
upperneck 8.71267 -1.66332 6.5801
head 2.75632 -0.704885 2.49792
rclavicle 3.77691e-014 -4.75095e-014
rhumerus -46.6418 2.32511 -98.0798
rradius 70.6939
rwrist -4.1066
rhand -10.0117 -43.8248
rfingers 7.12502
rthumb 15.9724 -73.1863
lclavicle 3.77691e-014 -4.75095e-014
lhumerus -21.769 -29.1336 98.2626
lradius 58.3327
lwrist 4.91045
lhand -30.0106 -22.6009
lfingers 7.12502
lthumb -3.32772 7.35287
rfemur -41.6167 0.334657 31.9599
rtibia 30.7786
rfoot 33.1821 -1.14866
rtoes -20.1038
lfemur -51.5246 -18.4266 -3.83157
ltibia 28.902
lfoot 30.0715 -4.52524
ltoes -46.0974
237
root 9.98719 22.5151 8.8048 -145.288 -181.663 185.266
lowerback -23.1298 1.10337 -8.29313
upperback -3.85704 3.6993 -1.89844
thorax 8.23703 1.59038 3.72698
lowerneck 0.881184 -0.938957 -2.12776
upperneck 8.72367 -1.68157 6.56909
head 2.72975 -0.711515 2.47963
rclavicle -4.23411e-014 2.44505e-014
rhumerus -46.3626 1.85854 -97.7678
rradius 70.6679
rwrist -4.76805
rhand -10.149 -43.5575
rfingers 7.12502
rthumb 15.8402 -72.9295
lclavicle -4.23411e-014 2.44505e-014
lhumerus -21.351 -29.1574 98.6428
lradius 57.8367
lwrist 3.18302
lhand -30.0832 -22.9172
lfingers 7.12502
lthumb -3.39779 7.03546
rfemur -41.9909 1.86465 30.6538
rtibia 30.4951
rfoot 31.6725 -0.915626
rtoes -21.3354
lfemur -52.036 -18.1223 -3.28227
ltibia 29.4192
lfoot 29.2754 -3.62828
ltoes -45.998
238
root 9.97176 22.6552 8.8647 -145.24 -186.143 185.405
lowerback -23.3128 0.944328 -8.02199
upperback -3.48987 3.45445 -1.65558
thorax 8.77431 1.44604 3.79104
lowerneck 0.79605 -0.947196 -2.18361
upperneck 8.75496 -1.68792 6.59368
head 2.75769 -0.711056 2.49891
rclavicle 1.68967e-015 2.14687e-014
rhumerus -45.9549 1.12905 -97.3014
rradius 70.5847
rwrist -5.34622
rhand -9.95876 -43.2366
rfingers 7.12502
rthumb 16.0234 -72.594
lclavicle 1.68967e-015 2.14687e-014
lhumerus -20.8397 -29.7294 98.928
lradius 57.2197
lwrist 1.83557
lhand -30.3019 -24.1076
lfingers 7.12502
lthumb -3.60901 5.84156
rfemur -41.571 3.20409 29.9129
rtibia 30.3065
rfoot 30.3224 -0.224161
rtoes -20.25
lfemur -51.4788 -17.649 -2.85263
ltibia 29.6417
lfoot 28.4396 -2.10408
ltoes -45.9718
239
root 9.95138 22.7758 8.88564 -144.098 -191.228 185.788
lowerback -23.4965 0.6469 -7.41727
upperback -3.81982 2.92808 -1.65547
thorax 8.59566 1.23665 3.29756
lowerneck 0.522305 -1.02358 -2.22937
upperneck 8.826 -1.79178 6.67762
head 2.84013 -0.75323 2.53547
rclavicle 5.86415e-014 -4.25399e-014
rhumerus -45.9305 -0.0226232 -97.0804
rradius 70.4439
rwrist -6.03615
rhand -9.21202 -43.0263
rfingers 7.12502
rthumb 16.7423 -72.3243
lclavicle 5.86415e-014 -4.25399e-014
lhumerus -21.0599 -30.8788 99.0708
lradius 56.8647
lwrist 1.17748
lhand -30.1912 -24.8217
lfingers 7.12502
lthumb -3.50212 5.12928
rfemur -42.7758 4.11954 29.2011
rtibia 30.7017
rfoot 28.0492 -0.368705
rtoes -23.918
lfemur -53.0225 -17.1166 -1.79015
ltibia 30.8255
lfoot 27.2197 -0.123341
ltoes -47.103
240
root 9.9551 22.8858 8.89394 -142.692 -196.63 186.415
lowerback -24.0272 0.309166 -6.59178
upperback -3.99909 2.32886 -1.60728
thorax 8.77029 0.978323 2.71993
lowerneck 0.209749 -1.08845 -2.39957
upperneck 8.83129 -1.87185 6.73059
head 2.90818 -0.789092 2.58408
rclavicle 1.71949e-014 -7.55382e-015
rhumerus -45.707 -0.898687 -96.6198
rradius 70.505
rwrist -7.3626
rhand -8.57576 -43.228
rfingers 7.12502
rthumb 17.3548 -72.4732
lclavicle 1.71949e-014 -7.55382e-015
lhumerus -20.9748 -32.379 99.1669
lradius 56.5533
lwrist 1.20353
lhand -30.1025 -24.382
lfingers 7.12502
lthumb -3.41644 5.57037
rfemur -44.3474 4.20679 28.5414
rtibia 31.3297
rfoot 26.463 -0.287129
rtoes -25.1146
lfemur -55.2089 -16.8732 -0.801891
ltibia 32.4905
lfoot 26.5813 1.83459
ltoes -45.4335
241
root 9.9577 22.9877 8.90361 -141.676 -202.041 187.079
lowerback -24.1589 -0.0868004 -5.74878
upperback -4.04157 1.60263 -1.44398
thorax 8.87679 0.658022 2.20276
lowerneck -0.0553126 -0.99999 -2.50735
upperneck 8.92752 -1.74519 6.69457
head 2.98456 -0.722755 2.59715
rclavicle 5.46658e-015 4.25399e-014
rhumerus -45.536 -1.42169 -96.1766
rradius 70.6752
rwrist -8.33046
rhand -7.67775 -43.6026
rfingers 7.12502
rthumb 18.2189 -72.7693
lclavicle 5.46658e-015 4.25399e-014
lhumerus -20.973 -33.4006 99.0094
lradius 56.6055
lwrist 1.02222
lhand -29.8974 -23.5666
lfingers 7.12502
lthumb -3.2184 6.38884
rfemur -45.2846 3.9637 28.1409
rtibia 31.817
rfoot 25.4112 0.172041
rtoes -26.6628
lfemur -56.7608 -16.6346 -0.142265
ltibia 33.9967
lfoot 25.7353 3.44494
ltoes -44.0659
242
root 9.95075 23.081 8.92855 -140.966 -206.952 188.033
lowerback -23.898 -0.359876 -5.38112
upperback -3.89941 1.13344 -1.28661
thorax 8.93897 0.443225 2.02035
lowerneck -0.314606 -1.00175 -2.62846
upperneck 8.97872 -1.74143 6.728
head 3.05314 -0.716413 2.63298
rclavicle 1.09332e-014 4.13472e-014
rhumerus -45.3753 -2.0592 -95.4738
rradius 70.7423
rwrist -8.4437
rhand -7.55802 -43.1384
rfingers 7.12502
rthumb 18.3341 -72.2943
lclavicle 1.09332e-014 4.13472e-014
lhumerus -21.1339 -34.5442 98.9353
lradius 57.0224
lwrist 1.10973
lhand -29.7453 -23.2861
lfingers 7.12502
lthumb -3.0715 6.67151
rfemur -45.6019 3.90826 27.3433
rtibia 32.2204
rfoot 24.827 0.0284886
rtoes -27.3567
lfemur -57.4849 -16.3442 -0.170785
ltibia 35.2647
lfoot 25.1592 4.57322
ltoes -43.865
243
root 9.94375 23.1535 8.96919 -140.355 -211.354 189.007
lowerback -23.8133 -0.662233 -5.2469
upperback -3.60931 0.697584 -1.11587
thorax 9.24936 0.226328 1.99837
lowerneck -0.450668 -0.902214 -2.70133
upperneck 8.99178 -1.595 6.66422
head 3.07496 -0.643883 2.62946
rclavicle -5.1684e-015 7.95139e-016
rhumerus -45.2727 -2.30512 -95.02
rradius 70.9083
rwrist -8.44805
rhand -9.05197 -42.4258
rfingers 7.12502
rthumb 16.8964 -71.7108
lclavicle -5.1684e-015 7.95139e-016
lhumerus -21.2146 -35.4562 98.4088
lradius 57.5142
lwrist 1.57264
lhand -29.7261 -23.7804
lfingers 7.12502
lthumb -3.05294 6.1775
rfemur -45.6323 4.1262 26.4834
rtibia 32.6174
rfoot 24.6931 -0.387371
rtoes -25.5792
lfemur -57.7639 -15.8849 -0.430981
ltibia 36.3878
lfoot 24.8536 5.36126
ltoes -45.1795
244
root 9.94711 23.2013 9.01355 -139.793 -215.593 190.032
lowerback -23.7271 -0.890855 -4.87129
upperback -3.27711 0.306147 -1.06378
thorax 9.60619 0.0393922 1.71875
lowerneck -0.585239 -0.824244 -2.8086
upperneck 8.99616 -1.47902 6.63725
head 3.09651 -0.586849 2.64413
rclavicle 1.70955e-014 -2.46493e-014
rhumerus -45.1754 -2.5228 -94.7192
rradius 71.1442
rwrist -8.3316
rhand -10.4996 -42.3709
rfingers 7.12502
rthumb 15.5025 -71.7694
lclavicle 1.70955e-014 -2.46493e-014
lhumerus -21.0938 -36.2218 97.5172
lradius 58.0505
lwrist 1.90169
lhand -29.5895 -23.4381
lfingers 7.12502
lthumb -2.92103 6.52162
rfemur -45.4517 4.09975 25.9029
rtibia 32.9755
rfoot 24.7554 -0.1281
rtoes -25.4228
lfemur -57.7947 -15.5976 -0.621357
ltibia 37.3311
lfoot 24.6381 6.31488
ltoes -45.6145
